<svg width="27" height="24" viewBox="0 0 27 24" fill="none" xmlns="http://www.w3.org/2000/svg">
<path d="M25.4599 6.83515L13.6707 0.473313C13.3242 0.286646 12.9077 0.286646 12.5624 0.473313L0.779069 6.83515C0.212067 7.14315 0.000900522 7.85013 0.30657 8.41714C0.516569 8.80797 0.91907 9.02965 1.33324 9.02965C1.5199 9.02965 1.71124 8.9853 1.8874 8.88963L2.74374 8.42764L4.59874 21.5526C4.85074 22.969 6.12707 23.9583 7.70207 23.9583H18.531C20.106 23.9583 21.3824 22.969 21.6367 21.5223L23.4894 8.42648L24.3492 8.89081C24.915 9.19764 25.6232 8.98647 25.9289 8.41947C26.2357 7.85247 26.0222 7.14431 25.4575 6.83864L25.4599 6.83515ZM13.1165 16.2676C11.0224 16.2676 9.3249 14.5701 9.3249 12.476C9.3249 10.3818 11.0224 8.68431 13.1165 8.68431C15.2107 8.68431 16.9082 10.3818 16.9082 12.476C16.9082 14.5701 15.2107 16.2676 13.1165 16.2676Z" fill="black"/>
</svg>
